<svg xmlns="http://www.w3.org/2000/svg" viewBox="0 0 500 500"> <path fill="red" stroke="#000" stroke-width="11" d="M128 11c9 6 1 11-19 12-2 0-4 3-4 5 1 3-3 6-8 7-14 2-43 29-34 33 7 3 7 3 0 3-4 0-6 2-5 4s0 4-3 4c-4 0-8 3-9 6-1 4-5 6-7 6-10 0-25 27-26 44 0 2-4 5-7 5-6 0-6 0 1 6 4 3 5 5 3 4-3-1-5 4-6 17-3 27 0 49 7 49 3 0 5 2 3 4-1 2 2 5 7 7 8 2 8 2 2 4-16 6 13 19 40 18 14 0 25 1 25 3s2 3 3 3c11-1 15 1 10 5-7 7-6 28 1 28 4 0 6 2 6 6s-2 6-6 4c-6-2-6 0-5 15 1 11 1 18-1 16-5-2-4 3 0 11 2 3 3 7 1 9-4 7-3 26 2 24 2-1 4 1 4 5s-1 6-3 6c-4 0 1 33 5 36 3 2 3 5 2 7-2 3 0 10 3 16 3 7 5 13 4 14-5 5 24 23 36 23 32 0 63-77 46-113-2-4-2-9-1-12 2-3 3-14 2-26s1-22 4-23 4-10 3-18c-1-34 1-62 5-54 2 5 3-4 3-28 0-64 5-76 22-57 9 9 12 10 19 7 4-3 10-3 13-2 2 2 8 4 12 4 12 1 13 2 7 6-5 3-4 3 5 4 6 0 10 1 9 4s0 4 3 4 7 1 7 3c0 3-3 3-6 2s-10 1-15 4c-5 4-7 7-5 7 5 0-3 17-15 35-7 9-7 10-1 15 6 4 6 5 1 7-10 3 9 38 28 50 20 12 55 19 67 13 8-4 10-3 12 3l5 13c2 4 2 10-2 16-3 5-5 14-6 20v10l-4-10-4-9-9 11c-10 10-11 10-19 4-10-6-45-9-42-3 3 5-23 25-28 22l2 3c4 6 4 7-1 9-7 3-5 11 7 28 4 6 6 12 5 14-1 3 1 5 5 6 6 2 6 2-1 2-13 1 17 21 31 21 9 0 11 1 7 3-8 6 24 10 44 7 12-2 15-4 11-7s-3-3 3-2c5 1 17-3 28-10 15-8 18-11 11-11-5 0-9-2-9-5 0-2 4-3 10-2 5 1 11 0 12-2 2-2 5-3 8-2s5 0 4-2c-1-3 3-8 10-12s11-9 10-11 2-6 7-10c5-3 6-6 4-6-3 0-5-4-5-8 0-7 2-8 7-6 6 2 9-1 12-16 6-22 6-84 1-81-2 2-4-4-5-12-1-10-3-15-6-14-4 0-5-1-3-4s0-7-4-10c-6-4-6-5-2-6 3 0 2-2-3-4-6-2-9-5-7-8 3-5-6-16-11-13-2 1-3 1-2-1 0-2-5-9-11-15-10-10-11-12-5-15 4-2 5-6 4-9-1-4 2-7 8-9 7-1 11-5 11-9 0-9 10-18 16-14 3 2 4 1 2-1-1-3 1-5 5-6 6-2 13-13 25-40 7-16-1-43-16-57-7-7-8-7-8-1 0 3-2 6-4 6s-4-3-4-8c0-8 0-8-49-9-15 0-27-1-27-3 0-1-6-2-13-1-50 5-65 5-72 1-6-3-9-3-11 0-2 2-9 3-16 3s-13 0-15 2c-1 2-5 3-9 1-4-1-12 2-17 6s-11 7-13 6-2-1-2 2-4 4-8 4-8-1-8-4-4-4-7-4c-4 0-10-3-12-8a19 19 0 0 0-16-8c-6 0-10-1-9-2 7-6-11-18-26-18-12 1-15 2-11 4zm37 39c20 12 22 66 8 204a1002 1002 0 0 1-10 88 156 156 0 0 0-2 44c9 12 6 55-6 59-7 3-12 3-14 1-9-9-20-112-13-116 5-3 5-70 0-76-2-3-4-28-6-57s-4-53-6-53c-6 0-27 25-27 33-1 28-36 46-55 28-8-8-5-31 7-56l7-20c0-6 18-20 24-18 2 1 4-1 4-3s-1-5-4-5-4-1-4-3 4-3 8-2c6 2 8 0 8-4 0-3 4-7 8-8s12-9 18-18c7-11 14-17 21-19a489 489 0 0 0 21-5l13 6zm100 11c0 6 148 6 185 0 40-6 23 56-21 73-9 4-68 69-68 76 0 3 4 6 11 6 28 0 73 34 79 60 1 7 5 17 9 21 23 26-24 123-60 123-4 0-7 2-7 4 0 25-61 28-88 5-21-19-23-33-3-33 9 0 17 3 26 12 9 8 14 11 21 9 18-6 43-26 48-38l15-27c18-24 12-64-9-64-5 0-14-4-20-9-7-6-12-7-16-4-3 3-11 2-26-2l-29-5c-24 0-26-42-2-47 7-2 13-7 17-14 8-16 24-40 32-48 3-3 6-8 6-11s4-6 9-9c11-6 27-23 25-28-2-3-12-1-44 11-29 10-64 12-80 4-7-3-17-5-22-4-12 2-28-21-28-38 0-13 8-10 8 2 0 10 1 11 3 2 1-4 6-12 10-17 3-4 7-9 7-12s2-4 6-4c3 0 6 3 6 6z" paint-order="stroke"/></svg>